<?xml version="1.0" encoding="utf-8"?>
<!-- Generator: Adobe Illustrator 27.5.0, SVG Export Plug-In . SVG Version: 6.00 Build 0)  -->
<svg version="1.1" id="Layer_1" xmlns="http://www.w3.org/2000/svg" xmlns:xlink="http://www.w3.org/1999/xlink" x="0px" y="0px"
	 viewBox="0 0 2000 2000" style="enable-background:new 0 0 2000 2000;" xml:space="preserve">
<g>
	<path style="fill:#3C2415;" d="M390.819,1165.953c-36.514,56.443-39.777,129.784-4.42,191.033
		c35.045,60.695,101.487,94.65,169.013,91.32c-3.398,67.153,30.442,132.302,91.685,167.652
		c60.722,35.038,135.422,31.193,192.029-5.416c30.632,59.842,92.511,99.348,163.231,99.348c70.104,0,132.884-40.684,163.597-100.716
		c56.45,36.514,129.784,39.764,191.033,4.427c60.715-35.052,94.738-101.677,91.32-169.019
		c67.078,3.574,132.288-30.435,167.652-91.685c35.059-60.708,31.221-135.402-5.422-192.022
		c59.855-30.639,99.355-92.525,99.355-163.238c0-70.104-40.678-132.884-100.716-163.59c36.521-56.443,39.784-129.784,4.427-191.033
		c-35.045-60.722-101.69-94.921-169.012-91.32c3.398-67.139-30.442-132.288-91.685-167.652
		c-60.708-35.038-135.422-31.207-192.035,5.416c-30.625-59.842-92.511-99.348-163.225-99.348
		c-70.104,0-132.884,40.684-163.597,100.716c-56.443-36.541-129.79-39.791-191.033-4.427
		c-60.708,35.052-94.738,101.677-91.32,169.019c-67.315-3.439-132.295,30.435-167.652,91.672
		c-35.059,60.722-31.221,135.429,5.416,192.035c-59.855,30.638-99.348,92.511-99.348,163.225
		C290.11,1072.453,330.787,1135.233,390.819,1165.953z M359.429,1002.349c0-56.484,40.508-103.911,96.329-112.779
		c13.573-2.153,24.587-12.117,28.08-25.412c3.5-13.282-1.185-27.376-11.935-35.932c-43.913-34.93-55.875-97.899-27.829-146.477
		c28.256-48.93,87.055-69.766,139.802-49.498c12.835,4.955,27.362,1.787,37.029-7.961c9.674-9.762,12.672-24.316,7.636-37.096
		c-20.559-52.206,0.562-112.725,49.133-140.764c48.916-28.256,110.26-16.897,145.834,27.037
		c8.658,10.669,22.813,15.204,36.047,11.616c13.261-3.615,23.131-14.73,25.162-28.31c8.293-55.496,56.843-97.344,112.928-97.344
		c56.491,0,103.918,40.508,112.772,96.329c2.153,13.579,12.124,24.587,25.412,28.093c13.302,3.534,27.389-1.205,35.946-11.941
		c34.923-43.934,97.893-55.875,146.47-27.836c48.923,28.242,69.739,87.041,49.505,139.802c-4.921,12.835-1.801,27.362,7.961,37.029
		c9.762,9.653,24.316,12.645,37.096,7.636c52.192-20.579,112.725,0.569,140.764,49.133c28.242,48.93,16.876,110.247-27.031,145.827
		c-10.675,8.651-15.238,22.786-11.623,36.04c3.615,13.268,14.724,23.138,28.31,25.169c55.496,8.299,97.344,56.85,97.344,112.928
		c0,56.498-40.508,103.924-96.329,112.792c-13.573,2.153-24.587,12.117-28.08,25.412c-3.5,13.282,1.185,27.376,11.934,35.932
		c43.906,34.944,55.875,97.9,27.829,146.464c-28.255,48.929-87.075,69.766-139.809,49.512c-12.835-4.955-27.355-1.801-37.036,7.961
		c-9.674,9.762-12.666,24.316-7.629,37.096c20.566,52.206-0.555,112.711-49.126,140.764
		c-48.923,28.255-110.261,16.869-145.834-27.037c-6.682-8.245-16.639-12.835-26.929-12.835c-3.039,0-6.099,0.393-9.118,1.219
		c-13.261,3.615-23.131,14.73-25.162,28.31c-8.293,55.496-56.843,97.344-112.928,97.344c-56.491,0-103.924-40.508-112.779-96.329
		c-2.153-13.579-12.124-24.587-25.413-28.093c-13.302-3.534-27.396,1.205-35.946,11.941
		c-34.924,43.934-97.879,55.916-146.463,27.836c-48.923-28.242-69.745-87.041-49.512-139.802
		c4.921-12.835,1.801-27.362-7.961-37.029c-9.755-9.667-24.302-12.699-37.096-7.636c-52.192,20.552-112.711-0.582-140.757-49.132
		c-28.242-48.93-16.876-110.261,27.03-145.841c10.682-8.651,15.238-22.799,11.616-36.054c-3.615-13.255-14.724-23.124-28.31-25.155
		C401.271,1106.991,359.429,1058.441,359.429,1002.349z"/>
	<path style="fill:#3C2415;" d="M547.937,1208.18c39.858,32.927,181.962-26.861,196.693-97.047
		c14.73-70.186,45.924-93.581,45.924-93.581c-23.395,110.91,20.796,175.897,29.461,239.151
		c8.665,63.254,79.717,141.237,110.91,157.701c31.194,16.463,58.921-6.932,32.927-24.262c-25.995-17.33-32.927-52.856-9.531-39.858
		c23.395,12.997,43.324,23.395,43.324,23.395s19.929-10.398,43.324-23.395c23.395-12.997,16.463,22.529-9.531,39.858
		c-25.995,17.33,1.733,40.725,32.927,24.262c31.193-16.463,102.245-94.447,110.91-157.701
		c8.665-63.254,52.856-128.24,29.461-239.151c0,0,31.194,23.395,45.924,93.581c14.73,70.186,156.834,129.973,196.693,97.047
		c35.018-28.933-1.618-214.307-172.066-257.13c12.347-20.89,19.564-45.152,19.564-71.133c0-77.402-62.969-140.371-140.371-140.371
		c-11.691,0-23.253,1.462-34.429,4.319c-13.498-51.949-60.789-90.413-116.894-90.413c-1.862,0-3.703,0.081-5.531,0.203
		c-2.071-0.135-3.771-0.203-5.49-0.203c-56.105,0-103.396,38.464-116.895,90.413c-11.176-2.857-22.739-4.319-34.429-4.319
		c-77.402,0-140.371,62.969-140.371,140.371c0,25.981,7.216,50.243,19.564,71.133C549.555,993.874,512.919,1179.248,547.937,1208.18
		z M769.758,879.917c0-39.182,31.87-71.052,71.052-71.052c17.025,0,33.542,6.201,46.499,17.452
		c11.725,10.168,28.777,11.346,41.74,2.803c12.977-8.516,18.711-24.614,14.033-39.412c-1.577-5.009-2.383-10.222-2.383-15.502
		c0-28.364,23.07-51.434,51.434-51.434l1.956,0.122c1.584,0.122,4.258,0.203,5.862,0.081l3.216-0.203
		c28.35,0,51.421,23.07,51.421,51.434c0,5.28-0.806,10.493-2.383,15.502c-4.678,14.798,1.056,30.896,14.033,39.412
		c12.97,8.502,30.022,7.352,41.74-2.803c12.957-11.251,29.474-17.452,46.499-17.452c39.182,0,71.052,31.87,71.052,71.052
		s-31.87,71.052-71.052,71.052c-6.011,0-11.914-0.799-17.607-2.261c-16.389-4.211-30.984-14.202-40.86-28.486
		c-0.23-0.338-0.562-0.569-0.806-0.907c-6.83-9.166-17.675-14.514-29.142-14.026c-11.88,0.487-22.678,7.04-28.608,17.343
		c-8.211,14.27-23.463,23.138-39.811,23.138s-31.6-8.868-39.811-23.138c-5.93-10.303-16.727-16.856-28.608-17.343
		c-0.481-0.014-0.961-0.027-1.442-0.027c-10.939,0-21.168,5.267-27.707,14.067c-0.244,0.325-0.569,0.555-0.799,0.894
		c-9.877,14.283-24.471,24.275-40.86,28.486c-5.693,1.462-11.596,2.261-17.607,2.261
		C801.628,950.969,769.758,919.099,769.758,879.917z"/>
</g>
</svg>
